<mxfile host="app.diagrams.net" agent="Mozilla/5.0 (Windows NT 10.0; Win64; x64) AppleWebKit/537.36 (KHTML, like Gecko) Chrome/132.0.0.0 Safari/537.36 OPR/117.0.0.0" version="26.0.16">
  <diagram name="Page-1" id="97916047-d0de-89f5-080d-49f4d83e522f">
    <mxGraphModel dx="4284.5" dy="1587" grid="1" gridSize="10" guides="1" tooltips="1" connect="1" arrows="1" fold="1" page="1" pageScale="1.5" pageWidth="1169" pageHeight="827" background="none" math="0" shadow="0">
      <root>
        <mxCell id="0" />
        <mxCell id="1" parent="0" />
        <mxCell id="s6y0V7xj7NlNuSxxxuVz-98" value="" style="edgeStyle=orthogonalEdgeStyle;rounded=0;orthogonalLoop=1;jettySize=auto;html=1;" edge="1" parent="1" source="3" target="s6y0V7xj7NlNuSxxxuVz-56">
          <mxGeometry relative="1" as="geometry" />
        </mxCell>
        <mxCell id="3" value="Start" style="rounded=1;fillColor=#10739E;strokeColor=none;shadow=1;gradientColor=none;fontStyle=1;fontColor=#FFFFFF;fontSize=14;" parent="1" vertex="1">
          <mxGeometry x="-137.5" y="30" width="138" height="40" as="geometry" />
        </mxCell>
        <mxCell id="s6y0V7xj7NlNuSxxxuVz-99" value="" style="edgeStyle=orthogonalEdgeStyle;rounded=0;orthogonalLoop=1;jettySize=auto;html=1;" edge="1" parent="1" source="s6y0V7xj7NlNuSxxxuVz-56" target="s6y0V7xj7NlNuSxxxuVz-57">
          <mxGeometry relative="1" as="geometry" />
        </mxCell>
        <mxCell id="s6y0V7xj7NlNuSxxxuVz-56" value="Main" style="rounded=1;fillColor=#990000;strokeColor=none;shadow=1;gradientColor=none;fontStyle=5;fontColor=#FFFFFF;fontSize=14;" vertex="1" parent="1">
          <mxGeometry x="-137.5" y="110" width="138" height="40" as="geometry" />
        </mxCell>
        <mxCell id="s6y0V7xj7NlNuSxxxuVz-100" value="" style="edgeStyle=orthogonalEdgeStyle;rounded=0;orthogonalLoop=1;jettySize=auto;html=1;" edge="1" parent="1" source="s6y0V7xj7NlNuSxxxuVz-57" target="s6y0V7xj7NlNuSxxxuVz-58">
          <mxGeometry relative="1" as="geometry" />
        </mxCell>
        <mxCell id="s6y0V7xj7NlNuSxxxuVz-57" value="Declare Variables" style="rounded=1;fillColor=#990000;strokeColor=none;shadow=1;gradientColor=none;fontStyle=1;fontColor=#FFFFFF;fontSize=14;" vertex="1" parent="1">
          <mxGeometry x="-137.5" y="190" width="138" height="40" as="geometry" />
        </mxCell>
        <mxCell id="s6y0V7xj7NlNuSxxxuVz-101" value="" style="edgeStyle=orthogonalEdgeStyle;rounded=0;orthogonalLoop=1;jettySize=auto;html=1;" edge="1" parent="1" source="s6y0V7xj7NlNuSxxxuVz-58" target="s6y0V7xj7NlNuSxxxuVz-59">
          <mxGeometry relative="1" as="geometry" />
        </mxCell>
        <mxCell id="s6y0V7xj7NlNuSxxxuVz-58" value="Display Menu" style="rounded=1;fillColor=#990000;strokeColor=none;shadow=1;gradientColor=none;fontStyle=1;fontColor=#FFFFFF;fontSize=14;" vertex="1" parent="1">
          <mxGeometry x="-137.5" y="270" width="138" height="40" as="geometry" />
        </mxCell>
        <mxCell id="s6y0V7xj7NlNuSxxxuVz-102" value="" style="edgeStyle=orthogonalEdgeStyle;rounded=0;orthogonalLoop=1;jettySize=auto;html=1;" edge="1" parent="1" source="s6y0V7xj7NlNuSxxxuVz-59" target="s6y0V7xj7NlNuSxxxuVz-60">
          <mxGeometry relative="1" as="geometry" />
        </mxCell>
        <mxCell id="s6y0V7xj7NlNuSxxxuVz-59" value="Get user Input" style="rounded=1;fillColor=#990000;strokeColor=none;shadow=1;gradientColor=none;fontStyle=1;fontColor=#FFFFFF;fontSize=14;" vertex="1" parent="1">
          <mxGeometry x="-137.5" y="350" width="138" height="40" as="geometry" />
        </mxCell>
        <mxCell id="s6y0V7xj7NlNuSxxxuVz-103" value="" style="edgeStyle=orthogonalEdgeStyle;rounded=0;orthogonalLoop=1;jettySize=auto;html=1;" edge="1" parent="1" source="s6y0V7xj7NlNuSxxxuVz-60" target="s6y0V7xj7NlNuSxxxuVz-61">
          <mxGeometry relative="1" as="geometry" />
        </mxCell>
        <mxCell id="s6y0V7xj7NlNuSxxxuVz-60" value="Validate Input" style="rounded=1;fillColor=#990000;strokeColor=none;shadow=1;gradientColor=none;fontStyle=1;fontColor=#FFFFFF;fontSize=14;" vertex="1" parent="1">
          <mxGeometry x="-137.5" y="430" width="138" height="40" as="geometry" />
        </mxCell>
        <mxCell id="s6y0V7xj7NlNuSxxxuVz-104" value="" style="edgeStyle=orthogonalEdgeStyle;rounded=0;orthogonalLoop=1;jettySize=auto;html=1;" edge="1" parent="1" source="s6y0V7xj7NlNuSxxxuVz-61" target="s6y0V7xj7NlNuSxxxuVz-65">
          <mxGeometry relative="1" as="geometry" />
        </mxCell>
        <mxCell id="s6y0V7xj7NlNuSxxxuVz-61" value="Process user choice" style="rounded=1;fillColor=#990000;strokeColor=none;shadow=1;gradientColor=none;fontStyle=1;fontColor=#FFFFFF;fontSize=14;" vertex="1" parent="1">
          <mxGeometry x="-137.5" y="510" width="138" height="40" as="geometry" />
        </mxCell>
        <mxCell id="s6y0V7xj7NlNuSxxxuVz-109" style="edgeStyle=orthogonalEdgeStyle;rounded=0;orthogonalLoop=1;jettySize=auto;html=1;entryX=0;entryY=0.5;entryDx=0;entryDy=0;" edge="1" parent="1" source="s6y0V7xj7NlNuSxxxuVz-65" target="s6y0V7xj7NlNuSxxxuVz-68">
          <mxGeometry relative="1" as="geometry" />
        </mxCell>
        <mxCell id="s6y0V7xj7NlNuSxxxuVz-111" style="edgeStyle=orthogonalEdgeStyle;rounded=0;orthogonalLoop=1;jettySize=auto;html=1;entryX=0;entryY=0.5;entryDx=0;entryDy=0;" edge="1" parent="1" source="s6y0V7xj7NlNuSxxxuVz-65" target="s6y0V7xj7NlNuSxxxuVz-76">
          <mxGeometry relative="1" as="geometry" />
        </mxCell>
        <mxCell id="s6y0V7xj7NlNuSxxxuVz-112" style="edgeStyle=orthogonalEdgeStyle;rounded=0;orthogonalLoop=1;jettySize=auto;html=1;entryX=0;entryY=0.5;entryDx=0;entryDy=0;" edge="1" parent="1" source="s6y0V7xj7NlNuSxxxuVz-65" target="s6y0V7xj7NlNuSxxxuVz-81">
          <mxGeometry relative="1" as="geometry" />
        </mxCell>
        <mxCell id="s6y0V7xj7NlNuSxxxuVz-113" style="edgeStyle=orthogonalEdgeStyle;rounded=0;orthogonalLoop=1;jettySize=auto;html=1;entryX=0;entryY=0.5;entryDx=0;entryDy=0;" edge="1" parent="1" source="s6y0V7xj7NlNuSxxxuVz-65" target="s6y0V7xj7NlNuSxxxuVz-85">
          <mxGeometry relative="1" as="geometry" />
        </mxCell>
        <mxCell id="s6y0V7xj7NlNuSxxxuVz-114" style="edgeStyle=orthogonalEdgeStyle;rounded=0;orthogonalLoop=1;jettySize=auto;html=1;entryX=0;entryY=0.5;entryDx=0;entryDy=0;" edge="1" parent="1" source="s6y0V7xj7NlNuSxxxuVz-65" target="s6y0V7xj7NlNuSxxxuVz-90">
          <mxGeometry relative="1" as="geometry" />
        </mxCell>
        <mxCell id="s6y0V7xj7NlNuSxxxuVz-115" style="edgeStyle=orthogonalEdgeStyle;rounded=0;orthogonalLoop=1;jettySize=auto;html=1;entryX=0;entryY=0.5;entryDx=0;entryDy=0;" edge="1" parent="1" source="s6y0V7xj7NlNuSxxxuVz-65" target="s6y0V7xj7NlNuSxxxuVz-93">
          <mxGeometry relative="1" as="geometry" />
        </mxCell>
        <mxCell id="s6y0V7xj7NlNuSxxxuVz-65" value="Call appropriate funtion" style="rounded=1;fillColor=#990000;strokeColor=none;shadow=1;gradientColor=none;fontStyle=1;fontColor=#FFFFFF;fontSize=12;" vertex="1" parent="1">
          <mxGeometry x="-137.5" y="590" width="138" height="40" as="geometry" />
        </mxCell>
        <mxCell id="s6y0V7xj7NlNuSxxxuVz-116" value="" style="edgeStyle=orthogonalEdgeStyle;rounded=0;orthogonalLoop=1;jettySize=auto;html=1;" edge="1" parent="1" source="s6y0V7xj7NlNuSxxxuVz-68" target="s6y0V7xj7NlNuSxxxuVz-69">
          <mxGeometry relative="1" as="geometry" />
        </mxCell>
        <mxCell id="s6y0V7xj7NlNuSxxxuVz-68" value="Add Winner" style="rounded=1;fillColor=#FF3399;strokeColor=none;shadow=1;gradientColor=none;fontStyle=5;fontColor=#FFFFFF;fontSize=13;" vertex="1" parent="1">
          <mxGeometry x="120" y="110" width="138" height="40" as="geometry" />
        </mxCell>
        <mxCell id="s6y0V7xj7NlNuSxxxuVz-122" value="" style="edgeStyle=orthogonalEdgeStyle;rounded=0;orthogonalLoop=1;jettySize=auto;html=1;" edge="1" parent="1" source="s6y0V7xj7NlNuSxxxuVz-69" target="s6y0V7xj7NlNuSxxxuVz-70">
          <mxGeometry relative="1" as="geometry" />
        </mxCell>
        <mxCell id="s6y0V7xj7NlNuSxxxuVz-69" value="Declare Variables" style="rounded=1;fillColor=#FF3399;strokeColor=none;shadow=1;gradientColor=none;fontStyle=1;fontColor=#FFFFFF;fontSize=11;" vertex="1" parent="1">
          <mxGeometry x="290" y="110" width="138" height="40" as="geometry" />
        </mxCell>
        <mxCell id="s6y0V7xj7NlNuSxxxuVz-128" value="" style="edgeStyle=orthogonalEdgeStyle;rounded=0;orthogonalLoop=1;jettySize=auto;html=1;" edge="1" parent="1" source="s6y0V7xj7NlNuSxxxuVz-70" target="s6y0V7xj7NlNuSxxxuVz-71">
          <mxGeometry relative="1" as="geometry" />
        </mxCell>
        <mxCell id="s6y0V7xj7NlNuSxxxuVz-70" value="Get player information" style="rounded=1;fillColor=#FF3399;strokeColor=none;shadow=1;gradientColor=none;fontStyle=1;fontColor=#FFFFFF;fontSize=11;" vertex="1" parent="1">
          <mxGeometry x="458" y="110" width="138" height="40" as="geometry" />
        </mxCell>
        <mxCell id="s6y0V7xj7NlNuSxxxuVz-134" value="" style="edgeStyle=orthogonalEdgeStyle;rounded=0;orthogonalLoop=1;jettySize=auto;html=1;" edge="1" parent="1" source="s6y0V7xj7NlNuSxxxuVz-71" target="s6y0V7xj7NlNuSxxxuVz-72">
          <mxGeometry relative="1" as="geometry" />
        </mxCell>
        <mxCell id="s6y0V7xj7NlNuSxxxuVz-71" value="Validate user input" style="rounded=1;fillColor=#FF3399;strokeColor=none;shadow=1;gradientColor=none;fontStyle=1;fontColor=#FFFFFF;fontSize=11;" vertex="1" parent="1">
          <mxGeometry x="630" y="110" width="138" height="40" as="geometry" />
        </mxCell>
        <mxCell id="s6y0V7xj7NlNuSxxxuVz-152" style="edgeStyle=orthogonalEdgeStyle;rounded=0;orthogonalLoop=1;jettySize=auto;html=1;entryX=1;entryY=0.5;entryDx=0;entryDy=0;" edge="1" parent="1" source="s6y0V7xj7NlNuSxxxuVz-72" target="s6y0V7xj7NlNuSxxxuVz-142">
          <mxGeometry relative="1" as="geometry">
            <Array as="points">
              <mxPoint x="1000" y="130" />
              <mxPoint x="1000" y="690" />
            </Array>
          </mxGeometry>
        </mxCell>
        <mxCell id="s6y0V7xj7NlNuSxxxuVz-72" value="Update or create player" style="rounded=1;fillColor=#FF3399;strokeColor=none;shadow=1;gradientColor=none;fontStyle=1;fontColor=#FFFFFF;fontSize=11;" vertex="1" parent="1">
          <mxGeometry x="807.5" y="110" width="138" height="40" as="geometry" />
        </mxCell>
        <mxCell id="s6y0V7xj7NlNuSxxxuVz-117" value="" style="edgeStyle=orthogonalEdgeStyle;rounded=0;orthogonalLoop=1;jettySize=auto;html=1;" edge="1" parent="1" source="s6y0V7xj7NlNuSxxxuVz-76" target="s6y0V7xj7NlNuSxxxuVz-77">
          <mxGeometry relative="1" as="geometry" />
        </mxCell>
        <mxCell id="s6y0V7xj7NlNuSxxxuVz-76" value="Delete Player" style="rounded=1;fillColor=#00CC66;strokeColor=none;shadow=1;gradientColor=none;fontStyle=5;fontColor=#FFFFFF;fontSize=13;" vertex="1" parent="1">
          <mxGeometry x="120" y="190" width="138" height="40" as="geometry" />
        </mxCell>
        <mxCell id="s6y0V7xj7NlNuSxxxuVz-123" value="" style="edgeStyle=orthogonalEdgeStyle;rounded=0;orthogonalLoop=1;jettySize=auto;html=1;" edge="1" parent="1" source="s6y0V7xj7NlNuSxxxuVz-77" target="s6y0V7xj7NlNuSxxxuVz-78">
          <mxGeometry relative="1" as="geometry" />
        </mxCell>
        <mxCell id="s6y0V7xj7NlNuSxxxuVz-77" value="Declare Variables" style="rounded=1;fillColor=#00CC66;strokeColor=none;shadow=1;gradientColor=none;fontStyle=1;fontColor=#FFFFFF;fontSize=11;" vertex="1" parent="1">
          <mxGeometry x="290" y="190" width="138" height="40" as="geometry" />
        </mxCell>
        <mxCell id="s6y0V7xj7NlNuSxxxuVz-129" value="" style="edgeStyle=orthogonalEdgeStyle;rounded=0;orthogonalLoop=1;jettySize=auto;html=1;" edge="1" parent="1" source="s6y0V7xj7NlNuSxxxuVz-78" target="s6y0V7xj7NlNuSxxxuVz-79">
          <mxGeometry relative="1" as="geometry" />
        </mxCell>
        <mxCell id="s6y0V7xj7NlNuSxxxuVz-78" value="Get player Name" style="rounded=1;fillColor=#00CC66;strokeColor=none;shadow=1;gradientColor=none;fontStyle=1;fontColor=#FFFFFF;fontSize=11;" vertex="1" parent="1">
          <mxGeometry x="458" y="190" width="138" height="40" as="geometry" />
        </mxCell>
        <mxCell id="s6y0V7xj7NlNuSxxxuVz-153" style="edgeStyle=orthogonalEdgeStyle;rounded=0;orthogonalLoop=1;jettySize=auto;html=1;entryX=1;entryY=0.5;entryDx=0;entryDy=0;" edge="1" parent="1" source="s6y0V7xj7NlNuSxxxuVz-79" target="s6y0V7xj7NlNuSxxxuVz-142">
          <mxGeometry relative="1" as="geometry">
            <Array as="points">
              <mxPoint x="1000" y="210" />
              <mxPoint x="1000" y="690" />
            </Array>
          </mxGeometry>
        </mxCell>
        <mxCell id="s6y0V7xj7NlNuSxxxuVz-79" value="Delete player or &#xa;show error message" style="rounded=1;fillColor=#00CC66;strokeColor=none;shadow=1;gradientColor=none;fontStyle=1;fontColor=#FFFFFF;fontSize=11;" vertex="1" parent="1">
          <mxGeometry x="630" y="190" width="138" height="40" as="geometry" />
        </mxCell>
        <mxCell id="s6y0V7xj7NlNuSxxxuVz-118" value="" style="edgeStyle=orthogonalEdgeStyle;rounded=0;orthogonalLoop=1;jettySize=auto;html=1;" edge="1" parent="1" source="s6y0V7xj7NlNuSxxxuVz-81" target="s6y0V7xj7NlNuSxxxuVz-82">
          <mxGeometry relative="1" as="geometry" />
        </mxCell>
        <mxCell id="s6y0V7xj7NlNuSxxxuVz-81" value="Display Leaderboard" style="rounded=1;fillColor=#FF8000;strokeColor=none;shadow=1;gradientColor=none;fontStyle=5;fontColor=#FFFFFF;fontSize=13;" vertex="1" parent="1">
          <mxGeometry x="120" y="270" width="138" height="40" as="geometry" />
        </mxCell>
        <mxCell id="s6y0V7xj7NlNuSxxxuVz-124" value="" style="edgeStyle=orthogonalEdgeStyle;rounded=0;orthogonalLoop=1;jettySize=auto;html=1;" edge="1" parent="1" source="s6y0V7xj7NlNuSxxxuVz-82" target="s6y0V7xj7NlNuSxxxuVz-83">
          <mxGeometry relative="1" as="geometry" />
        </mxCell>
        <mxCell id="s6y0V7xj7NlNuSxxxuVz-82" value="Declare Variables" style="rounded=1;fillColor=#FF8000;strokeColor=none;shadow=1;gradientColor=none;fontStyle=1;fontColor=#FFFFFF;fontSize=11;" vertex="1" parent="1">
          <mxGeometry x="290" y="270" width="138" height="40" as="geometry" />
        </mxCell>
        <mxCell id="s6y0V7xj7NlNuSxxxuVz-83" value="Display the leaderboard &#xa;in correct format" style="rounded=1;fillColor=#FF8000;strokeColor=none;shadow=1;gradientColor=none;fontStyle=1;fontColor=#FFFFFF;fontSize=11;" vertex="1" parent="1">
          <mxGeometry x="458" y="270" width="138" height="40" as="geometry" />
        </mxCell>
        <mxCell id="s6y0V7xj7NlNuSxxxuVz-119" value="" style="edgeStyle=orthogonalEdgeStyle;rounded=0;orthogonalLoop=1;jettySize=auto;html=1;" edge="1" parent="1" source="s6y0V7xj7NlNuSxxxuVz-85" target="s6y0V7xj7NlNuSxxxuVz-86">
          <mxGeometry relative="1" as="geometry" />
        </mxCell>
        <mxCell id="s6y0V7xj7NlNuSxxxuVz-85" value="Save Leaderboard &#xa;to file" style="rounded=1;fillColor=#7F00FF;strokeColor=none;shadow=1;gradientColor=none;fontStyle=5;fontColor=#FFFFFF;fontSize=13;" vertex="1" parent="1">
          <mxGeometry x="120" y="350" width="138" height="40" as="geometry" />
        </mxCell>
        <mxCell id="s6y0V7xj7NlNuSxxxuVz-125" value="" style="edgeStyle=orthogonalEdgeStyle;rounded=0;orthogonalLoop=1;jettySize=auto;html=1;" edge="1" parent="1" source="s6y0V7xj7NlNuSxxxuVz-86" target="s6y0V7xj7NlNuSxxxuVz-87">
          <mxGeometry relative="1" as="geometry" />
        </mxCell>
        <mxCell id="s6y0V7xj7NlNuSxxxuVz-86" value="Declare Variables" style="rounded=1;fillColor=#7F00FF;strokeColor=none;shadow=1;gradientColor=none;fontStyle=1;fontColor=#FFFFFF;fontSize=11;" vertex="1" parent="1">
          <mxGeometry x="290" y="350" width="138" height="40" as="geometry" />
        </mxCell>
        <mxCell id="s6y0V7xj7NlNuSxxxuVz-130" value="" style="edgeStyle=orthogonalEdgeStyle;rounded=0;orthogonalLoop=1;jettySize=auto;html=1;" edge="1" parent="1" source="s6y0V7xj7NlNuSxxxuVz-87" target="s6y0V7xj7NlNuSxxxuVz-88">
          <mxGeometry relative="1" as="geometry" />
        </mxCell>
        <mxCell id="s6y0V7xj7NlNuSxxxuVz-87" value="Get the file name &#xa;from user" style="rounded=1;fillColor=#7F00FF;strokeColor=none;shadow=1;gradientColor=none;fontStyle=1;fontColor=#FFFFFF;fontSize=11;" vertex="1" parent="1">
          <mxGeometry x="458" y="350" width="138" height="40" as="geometry" />
        </mxCell>
        <mxCell id="s6y0V7xj7NlNuSxxxuVz-132" value="" style="edgeStyle=orthogonalEdgeStyle;rounded=0;orthogonalLoop=1;jettySize=auto;html=1;" edge="1" parent="1" source="s6y0V7xj7NlNuSxxxuVz-88" target="s6y0V7xj7NlNuSxxxuVz-89">
          <mxGeometry relative="1" as="geometry" />
        </mxCell>
        <mxCell id="s6y0V7xj7NlNuSxxxuVz-88" value="Write the leaderboard&#xa; to the file " style="rounded=1;fillColor=#7F00FF;strokeColor=none;shadow=1;gradientColor=none;fontStyle=1;fontColor=#FFFFFF;fontSize=11;" vertex="1" parent="1">
          <mxGeometry x="630" y="350" width="138" height="40" as="geometry" />
        </mxCell>
        <mxCell id="s6y0V7xj7NlNuSxxxuVz-155" style="edgeStyle=orthogonalEdgeStyle;rounded=0;orthogonalLoop=1;jettySize=auto;html=1;entryX=1;entryY=0.5;entryDx=0;entryDy=0;" edge="1" parent="1" source="s6y0V7xj7NlNuSxxxuVz-89" target="s6y0V7xj7NlNuSxxxuVz-142">
          <mxGeometry relative="1" as="geometry">
            <Array as="points">
              <mxPoint x="1000" y="370" />
              <mxPoint x="1000" y="690" />
            </Array>
          </mxGeometry>
        </mxCell>
        <mxCell id="s6y0V7xj7NlNuSxxxuVz-89" value="Get the file name from user" style="rounded=1;fillColor=#7F00FF;strokeColor=none;shadow=1;gradientColor=none;fontStyle=1;fontColor=#FFFFFF;fontSize=11;" vertex="1" parent="1">
          <mxGeometry x="807.5" y="350" width="138" height="40" as="geometry" />
        </mxCell>
        <mxCell id="s6y0V7xj7NlNuSxxxuVz-120" value="" style="edgeStyle=orthogonalEdgeStyle;rounded=0;orthogonalLoop=1;jettySize=auto;html=1;" edge="1" parent="1" source="s6y0V7xj7NlNuSxxxuVz-90" target="s6y0V7xj7NlNuSxxxuVz-91">
          <mxGeometry relative="1" as="geometry" />
        </mxCell>
        <mxCell id="s6y0V7xj7NlNuSxxxuVz-90" value="Load Leaderboard&#xa;From File" style="rounded=1;fillColor=#009999;strokeColor=none;shadow=1;gradientColor=none;fontStyle=5;fontColor=#FFFFFF;fontSize=13;" vertex="1" parent="1">
          <mxGeometry x="120" y="430" width="138" height="40" as="geometry" />
        </mxCell>
        <mxCell id="s6y0V7xj7NlNuSxxxuVz-126" value="" style="edgeStyle=orthogonalEdgeStyle;rounded=0;orthogonalLoop=1;jettySize=auto;html=1;" edge="1" parent="1" source="s6y0V7xj7NlNuSxxxuVz-91" target="s6y0V7xj7NlNuSxxxuVz-92">
          <mxGeometry relative="1" as="geometry" />
        </mxCell>
        <mxCell id="s6y0V7xj7NlNuSxxxuVz-91" value="Declare Variables" style="rounded=1;fillColor=#009999;strokeColor=none;shadow=1;gradientColor=none;fontStyle=1;fontColor=#FFFFFF;fontSize=11;" vertex="1" parent="1">
          <mxGeometry x="290" y="430" width="138" height="40" as="geometry" />
        </mxCell>
        <mxCell id="s6y0V7xj7NlNuSxxxuVz-131" value="" style="edgeStyle=orthogonalEdgeStyle;rounded=0;orthogonalLoop=1;jettySize=auto;html=1;" edge="1" parent="1" source="s6y0V7xj7NlNuSxxxuVz-92" target="s6y0V7xj7NlNuSxxxuVz-105">
          <mxGeometry relative="1" as="geometry" />
        </mxCell>
        <mxCell id="s6y0V7xj7NlNuSxxxuVz-92" value="Get the file name &#xa;from user " style="rounded=1;fillColor=#009999;strokeColor=none;shadow=1;gradientColor=none;fontStyle=1;fontColor=#FFFFFF;fontSize=11;" vertex="1" parent="1">
          <mxGeometry x="458" y="430" width="138" height="40" as="geometry" />
        </mxCell>
        <mxCell id="s6y0V7xj7NlNuSxxxuVz-121" value="" style="edgeStyle=orthogonalEdgeStyle;rounded=0;orthogonalLoop=1;jettySize=auto;html=1;" edge="1" parent="1" source="s6y0V7xj7NlNuSxxxuVz-93" target="s6y0V7xj7NlNuSxxxuVz-94">
          <mxGeometry relative="1" as="geometry" />
        </mxCell>
        <mxCell id="s6y0V7xj7NlNuSxxxuVz-93" value="Clear Leaderboard" style="rounded=1;fillColor=#CCCC00;strokeColor=none;shadow=1;gradientColor=none;fontStyle=5;fontColor=#FFFFFF;fontSize=13;" vertex="1" parent="1">
          <mxGeometry x="120" y="510" width="138" height="40" as="geometry" />
        </mxCell>
        <mxCell id="s6y0V7xj7NlNuSxxxuVz-127" value="" style="edgeStyle=orthogonalEdgeStyle;rounded=0;orthogonalLoop=1;jettySize=auto;html=1;" edge="1" parent="1" source="s6y0V7xj7NlNuSxxxuVz-94" target="s6y0V7xj7NlNuSxxxuVz-95">
          <mxGeometry relative="1" as="geometry" />
        </mxCell>
        <mxCell id="s6y0V7xj7NlNuSxxxuVz-94" value="Declare Variables" style="rounded=1;fillColor=#CCCC00;strokeColor=none;shadow=1;gradientColor=none;fontStyle=1;fontColor=#FFFFFF;fontSize=11;" vertex="1" parent="1">
          <mxGeometry x="290" y="510" width="138" height="40" as="geometry" />
        </mxCell>
        <mxCell id="s6y0V7xj7NlNuSxxxuVz-158" style="edgeStyle=orthogonalEdgeStyle;rounded=0;orthogonalLoop=1;jettySize=auto;html=1;entryX=1;entryY=0.5;entryDx=0;entryDy=0;" edge="1" parent="1" source="s6y0V7xj7NlNuSxxxuVz-95" target="s6y0V7xj7NlNuSxxxuVz-142">
          <mxGeometry relative="1" as="geometry">
            <Array as="points">
              <mxPoint x="527" y="690" />
            </Array>
          </mxGeometry>
        </mxCell>
        <mxCell id="s6y0V7xj7NlNuSxxxuVz-95" value="Remove all data  from &#xa;leaderboard data struct" style="rounded=1;fillColor=#CCCC00;strokeColor=none;shadow=1;gradientColor=none;fontStyle=1;fontColor=#FFFFFF;fontSize=11;" vertex="1" parent="1">
          <mxGeometry x="458" y="510" width="138" height="40" as="geometry" />
        </mxCell>
        <mxCell id="s6y0V7xj7NlNuSxxxuVz-133" value="" style="edgeStyle=orthogonalEdgeStyle;rounded=0;orthogonalLoop=1;jettySize=auto;html=1;" edge="1" parent="1" source="s6y0V7xj7NlNuSxxxuVz-105" target="s6y0V7xj7NlNuSxxxuVz-106">
          <mxGeometry relative="1" as="geometry" />
        </mxCell>
        <mxCell id="s6y0V7xj7NlNuSxxxuVz-105" value="Read the leaderboard&#xa; from the file" style="rounded=1;fillColor=#009999;strokeColor=none;shadow=1;gradientColor=none;fontStyle=1;fontColor=#FFFFFF;fontSize=11;" vertex="1" parent="1">
          <mxGeometry x="630" y="430" width="138" height="40" as="geometry" />
        </mxCell>
        <mxCell id="s6y0V7xj7NlNuSxxxuVz-157" style="edgeStyle=orthogonalEdgeStyle;rounded=0;orthogonalLoop=1;jettySize=auto;html=1;entryX=1;entryY=0.5;entryDx=0;entryDy=0;" edge="1" parent="1" source="s6y0V7xj7NlNuSxxxuVz-106" target="s6y0V7xj7NlNuSxxxuVz-142">
          <mxGeometry relative="1" as="geometry">
            <Array as="points">
              <mxPoint x="1000" y="450" />
              <mxPoint x="1000" y="690" />
            </Array>
          </mxGeometry>
        </mxCell>
        <mxCell id="s6y0V7xj7NlNuSxxxuVz-106" value="Create leaderboard &#xa; from the data" style="rounded=1;fillColor=#009999;strokeColor=none;shadow=1;gradientColor=none;fontStyle=1;fontColor=#FFFFFF;fontSize=11;" vertex="1" parent="1">
          <mxGeometry x="807.5" y="430" width="138" height="40" as="geometry" />
        </mxCell>
        <mxCell id="s6y0V7xj7NlNuSxxxuVz-147" style="edgeStyle=orthogonalEdgeStyle;rounded=0;orthogonalLoop=1;jettySize=auto;html=1;entryX=0;entryY=0.5;entryDx=0;entryDy=0;" edge="1" parent="1" source="s6y0V7xj7NlNuSxxxuVz-142" target="s6y0V7xj7NlNuSxxxuVz-56">
          <mxGeometry relative="1" as="geometry">
            <Array as="points">
              <mxPoint x="-157" y="690" />
              <mxPoint x="-157" y="130" />
            </Array>
          </mxGeometry>
        </mxCell>
        <mxCell id="s6y0V7xj7NlNuSxxxuVz-149" value="" style="edgeStyle=orthogonalEdgeStyle;rounded=0;orthogonalLoop=1;jettySize=auto;html=1;" edge="1" parent="1" source="s6y0V7xj7NlNuSxxxuVz-142" target="s6y0V7xj7NlNuSxxxuVz-143">
          <mxGeometry relative="1" as="geometry" />
        </mxCell>
        <mxCell id="s6y0V7xj7NlNuSxxxuVz-142" value="Check if progress have&#xa;been saved" style="rounded=1;fillColor=#990000;strokeColor=none;shadow=1;gradientColor=none;fontStyle=1;fontColor=#FFFFFF;fontSize=11;" vertex="1" parent="1">
          <mxGeometry x="-137.5" y="670" width="138" height="40" as="geometry" />
        </mxCell>
        <mxCell id="s6y0V7xj7NlNuSxxxuVz-145" style="edgeStyle=orthogonalEdgeStyle;rounded=0;orthogonalLoop=1;jettySize=auto;html=1;" edge="1" parent="1" source="s6y0V7xj7NlNuSxxxuVz-143" target="s6y0V7xj7NlNuSxxxuVz-144">
          <mxGeometry relative="1" as="geometry" />
        </mxCell>
        <mxCell id="s6y0V7xj7NlNuSxxxuVz-143" value="Quit if Saved or Allowed" style="rounded=1;fillColor=#990000;strokeColor=none;shadow=1;gradientColor=none;fontStyle=1;fontColor=#FFFFFF;fontSize=11;" vertex="1" parent="1">
          <mxGeometry x="-137.5" y="760" width="138" height="40" as="geometry" />
        </mxCell>
        <mxCell id="s6y0V7xj7NlNuSxxxuVz-144" value="END" style="rounded=1;fillColor=#10739E;strokeColor=none;shadow=1;gradientColor=none;fontStyle=1;fontColor=#FFFFFF;fontSize=14;" vertex="1" parent="1">
          <mxGeometry x="120" y="760" width="138" height="40" as="geometry" />
        </mxCell>
        <mxCell id="s6y0V7xj7NlNuSxxxuVz-154" style="edgeStyle=orthogonalEdgeStyle;rounded=0;orthogonalLoop=1;jettySize=auto;html=1;entryX=1.053;entryY=0.538;entryDx=0;entryDy=0;entryPerimeter=0;" edge="1" parent="1" source="s6y0V7xj7NlNuSxxxuVz-83" target="s6y0V7xj7NlNuSxxxuVz-142">
          <mxGeometry relative="1" as="geometry">
            <Array as="points">
              <mxPoint x="1000" y="290" />
              <mxPoint x="1000" y="692" />
            </Array>
          </mxGeometry>
        </mxCell>
      </root>
    </mxGraphModel>
  </diagram>
</mxfile>
